M48
; DRILL file KiCad 10.0.0 date 2026-07-11T13:48:23
; FORMAT={-:-/ absolute / metric / decimal}
; #@! TF.CreationDate,2026-07-11T13:48:23+05:30
; #@! TF.GenerationSoftware,Kicad,Pcbnew,10.0.0
; #@! TF.FileFunction,Plated,1,2,PTH
FMAT,2
METRIC
; #@! TA.AperFunction,Plated,PTH,ViaDrill
T1C0.400
; #@! TA.AperFunction,Plated,PTH,ComponentDrill
T2C0.800
; #@! TA.AperFunction,Plated,PTH,ComponentDrill
T3C0.850
; #@! TA.AperFunction,Plated,PTH,ComponentDrill
T4C0.900
; #@! TA.AperFunction,Plated,PTH,ComponentDrill
T5C1.000
; #@! TA.AperFunction,Plated,PTH,ComponentDrill
T6C1.100
%
G90
G05
T1
X199.06Y-37.77
T2
X105.08Y-33.96
X112.7Y-33.96
X148.26Y-86.665
X155.88Y-86.665
X172.39Y-86.665
X180.01Y-86.665
T3
X121.362Y-44.742
X123.902Y-44.742
X126.442Y-44.742
X128.982Y-44.742
X130.506Y-93.002
X131.522Y-44.742
X133.046Y-93.002
X134.062Y-44.742
X135.586Y-93.002
X136.602Y-44.742
X138.126Y-93.002
X139.142Y-44.742
X140.666Y-93.002
X141.682Y-44.742
X143.206Y-93.002
X144.222Y-44.742
X145.746Y-93.002
X148.286Y-44.742
X148.286Y-93.002
X150.826Y-44.742
X153.366Y-44.742
X153.366Y-93.002
X155.906Y-44.742
X155.906Y-93.002
X158.446Y-44.742
X158.446Y-93.002
X160.986Y-44.742
X160.986Y-93.002
X163.526Y-44.742
X163.526Y-93.002
X166.066Y-44.742
X166.066Y-93.002
X168.606Y-93.002
X171.146Y-44.742
X171.146Y-93.002
X173.686Y-44.742
X176.226Y-44.742
X176.226Y-93.002
X178.766Y-44.742
X178.766Y-93.002
X181.306Y-44.742
X181.306Y-93.002
X183.846Y-44.742
X183.846Y-93.002
X186.386Y-44.742
X186.386Y-93.002
X188.926Y-44.742
X188.926Y-93.002
X191.466Y-93.002
X194.006Y-93.002
X196.546Y-44.742
X196.546Y-47.282
X196.546Y-49.822
X196.546Y-52.362
X196.546Y-54.902
X196.546Y-57.442
X196.546Y-59.982
X196.546Y-62.522
X196.546Y-65.062
X196.546Y-67.602
X196.546Y-70.142
X196.546Y-72.682
X196.546Y-75.222
X196.546Y-77.762
X196.546Y-80.302
X196.546Y-82.842
X196.546Y-85.382
X196.546Y-87.922
X199.086Y-44.742
X199.086Y-47.282
X199.086Y-49.822
X199.086Y-52.362
X199.086Y-54.902
X199.086Y-57.442
X199.086Y-59.982
X199.086Y-62.522
X199.086Y-65.062
X199.086Y-67.602
X199.086Y-70.142
X199.086Y-72.682
X199.086Y-75.222
X199.086Y-77.762
X199.086Y-80.302
X199.086Y-82.842
X199.086Y-85.382
X199.086Y-87.922
T4
X96.82Y-33.325
X99.36Y-33.325
X140.834Y-86.665
X143.374Y-86.665
X164.765Y-86.665
X167.305Y-86.665
T5
X99.365Y-73.965
X99.365Y-76.505
X112.7Y-71.425
X112.7Y-73.965
X112.7Y-76.505
X115.24Y-71.425
X115.24Y-73.965
X115.24Y-76.505
X115.24Y-98.095
X117.78Y-71.425
X117.78Y-73.965
X117.78Y-76.505
X117.78Y-98.095
X119.685Y-26.975
X120.32Y-71.425
X120.32Y-73.965
X120.32Y-76.505
X120.32Y-98.095
X122.225Y-26.975
X122.86Y-71.425
X122.86Y-73.965
X122.86Y-76.505
X122.86Y-98.095
X124.765Y-26.975
X125.4Y-50.47
X125.4Y-55.06
X125.4Y-71.425
X125.4Y-73.965
X125.4Y-76.505
X125.4Y-98.095
X127.305Y-26.975
X127.94Y-50.47
X127.94Y-55.06
X127.94Y-71.425
X127.94Y-73.965
X127.94Y-76.505
X129.845Y-26.975
X130.48Y-50.47
X130.48Y-55.06
X130.48Y-71.425
X130.48Y-73.965
X130.48Y-76.505
X133.02Y-71.425
X133.02Y-73.965
X133.02Y-76.505
X134.29Y-98.095
X136.83Y-98.095
X139.37Y-98.095
X141.91Y-98.095
X144.45Y-98.095
X148.26Y-51.105
X148.895Y-26.975
X150.8Y-51.105
X151.435Y-26.975
X153.34Y-51.105
X153.34Y-98.095
X153.975Y-26.975
X155.88Y-51.105
X155.88Y-98.095
X156.515Y-26.975
X158.42Y-51.105
X158.42Y-98.095
X159.055Y-26.975
X160.96Y-51.105
X160.96Y-98.095
X163.495Y-39.04
X163.5Y-98.095
X166.035Y-39.04
X166.04Y-98.095
X168.58Y-98.095
X171.12Y-98.095
X176.2Y-98.095
X178.105Y-26.975
X178.74Y-98.095
X180.645Y-26.975
X181.28Y-98.095
X183.185Y-26.975
X183.82Y-98.095
X185.725Y-26.975
X186.36Y-98.095
X187.63Y-70.155
X187.63Y-72.695
X187.63Y-75.235
X187.63Y-77.775
X187.63Y-80.315
X187.63Y-82.855
X187.63Y-85.395
X188.265Y-26.975
X188.9Y-98.095
X190.17Y-70.155
X190.17Y-72.695
X190.17Y-75.235
X190.17Y-77.775
X190.17Y-80.315
X190.17Y-82.855
X190.17Y-85.395
X192.71Y-70.155
X192.71Y-72.695
X192.71Y-75.235
X192.71Y-77.775
X192.71Y-80.315
X192.71Y-82.855
X192.71Y-85.395
X211.76Y-54.28
X211.76Y-56.82
X211.76Y-59.36
X211.76Y-72.695
X211.76Y-75.235
X211.76Y-77.775
X211.76Y-80.315
X211.76Y-82.855
X211.76Y-85.395
T6
X106.985Y-82.22
X106.985Y-86.72
X113.485Y-82.22
X113.485Y-86.72
M30
